<svg width="60" height="60" viewBox="0 0 60 60" fill="none" xmlns="http://www.w3.org/2000/svg">
<circle cx="30" cy="30" r="30" fill="#FD79A8"/>
<circle cx="18.2821" cy="21.4701" r="3.28205" fill="white"/>
<circle cx="18.2821" cy="38.9744" r="3.28205" fill="white"/>
<path d="M27.0342 44V16H34.438C37.7073 16 40.3098 17.0385 42.2457 19.1154C44.1944 21.1923 45.188 24.0385 45.2264 27.6539V32.1923C45.2264 35.8718 44.2521 38.7628 42.3034 40.8654C40.3675 42.9551 37.6944 44 34.2842 44H27.0342ZM32.688 20.7115V39.3077H34.3803C36.2649 39.3077 37.5919 38.8141 38.3611 37.8269C39.1304 36.827 39.5342 35.1089 39.5727 32.6731V27.8077C39.5727 25.1923 39.2073 23.3718 38.4765 22.3462C37.7457 21.3077 36.5021 20.7628 34.7457 20.7115H32.688Z" fill="white"/>
</svg>
