<svg width="85" height="48" viewBox="0 0 85 48" fill="none" xmlns="http://www.w3.org/2000/svg">
<path d="M51.9155 26.8891C51.9155 24.6766 52.4601 22.9282 53.5494 21.6438C54.6483 20.35 56.0959 19.7031 57.8923 19.7031C59.6887 19.7031 61.1316 20.3313 62.2209 21.5875C63.3197 22.8438 63.8835 24.5547 63.9121 26.7203V28.3235C63.9121 30.5266 63.3675 32.2703 62.2782 33.5547C61.1889 34.8391 59.7365 35.4813 57.921 35.4813C56.1246 35.4813 54.6817 34.8579 53.5925 33.611C52.5127 32.3641 51.9537 30.6766 51.9155 28.5484V26.8891ZM54.4524 28.3235C54.4524 29.8891 54.763 31.1219 55.384 32.0219C56.0147 32.9125 56.8604 33.3579 57.921 33.3579C60.1569 33.3579 61.3084 31.7735 61.3752 28.6047V26.8891C61.3752 25.3328 61.0599 24.1047 60.4292 23.2047C59.7986 22.2953 58.953 21.8407 57.8923 21.8407C56.8508 21.8407 56.0147 22.2953 55.384 23.2047C54.763 24.1047 54.4524 25.3282 54.4524 26.8751V28.3235ZM75.1635 35.2C75.0106 34.8719 74.9008 34.3187 74.8338 33.5407C73.9357 34.8344 72.789 35.4813 71.3939 35.4813C69.9893 35.4813 68.8905 35.0969 68.0973 34.3282C67.3138 33.55 66.9221 32.4579 66.9221 31.0516C66.9221 29.5047 67.4572 28.2766 68.5274 27.3672C69.5976 26.4579 71.0643 25.9938 72.9276 25.9751H74.7908V24.3579C74.7908 23.4484 74.5854 22.8016 74.1746 22.4172C73.7636 22.0328 73.1378 21.8407 72.2969 21.8407C71.5325 21.8407 70.9114 22.0656 70.4337 22.5156C69.9559 22.9563 69.717 23.5187 69.717 24.2031H67.18C67.18 23.425 67.4141 22.6844 67.8824 21.9813C68.3506 21.2687 68.9812 20.711 69.7744 20.3079C70.5674 19.9047 71.4513 19.7031 72.4259 19.7031C74.0121 19.7031 75.2161 20.0922 76.0378 20.8703C76.8691 21.6391 77.2943 22.7641 77.3135 24.2453V31.9235C77.323 33.0953 77.4854 34.1125 77.8008 34.9751V35.2H75.1635ZM71.7809 33.2172C72.402 33.2172 72.9945 33.0484 73.5582 32.711C74.122 32.3735 74.5329 31.9516 74.7908 31.4453V27.8172H73.3576C72.1536 27.8359 71.2028 28.1031 70.5053 28.6187C69.8078 29.125 69.459 29.8375 69.459 30.7563C69.459 31.6187 69.6357 32.2469 69.9893 32.6407C70.3428 33.025 70.9401 33.2172 71.7809 33.2172ZM83.9928 35.2H81.4556V19.9844H83.9928V35.2ZM84.1934 15.9484C84.1934 16.3703 84.0735 16.7219 83.8346 17.0031C83.5957 17.2844 83.2328 17.425 82.7452 17.425C82.2682 17.425 81.9095 17.2844 81.6706 17.0031C81.4317 16.7219 81.3124 16.3703 81.3124 15.9484C81.3124 15.5266 81.4317 15.1703 81.6706 14.8797C81.9095 14.5891 82.2682 14.4438 82.7452 14.4438C83.2231 14.4438 83.5818 14.5938 83.8207 14.8938C84.0694 15.1844 84.1934 15.5359 84.1934 15.9484Z" fill="#FD79A8"/>
<path d="M24.4615 48C37.9713 48 48.9231 37.2548 48.9231 24C48.9231 10.7452 37.9713 0 24.4615 0C10.9518 0 0 10.7452 0 24C0 37.2548 10.9518 48 24.4615 48Z" fill="#FD79A8"/>
<path d="M14.907 19.8017C16.385 19.8017 17.5831 18.6262 17.5831 17.1761C17.5831 15.726 16.385 14.5504 14.907 14.5504C13.429 14.5504 12.2308 15.726 12.2308 17.1761C12.2308 18.6262 13.429 19.8017 14.907 19.8017Z" fill="white"/>
<path d="M14.907 33.8052C16.385 33.8052 17.5831 32.6296 17.5831 31.1795C17.5831 29.7294 16.385 28.5539 14.907 28.5539C13.429 28.5539 12.2308 29.7294 12.2308 31.1795C12.2308 32.6296 13.429 33.8052 14.907 33.8052Z" fill="white"/>
<path d="M22.0433 34.2V11.8H28.0802C30.746 11.8 32.868 12.6308 34.4465 14.2923C36.0354 15.9538 36.8456 18.2308 36.8769 21.1231V24.7538C36.8769 27.6974 36.0825 30.0102 34.4935 31.6923C32.915 33.3641 30.7354 34.2 27.9548 34.2H22.0433ZM26.6533 15.5692V30.4461H28.0332C29.5698 30.4461 30.6519 30.0513 31.2791 29.2615C31.9063 28.4616 32.2356 27.0871 32.267 25.1385V21.2461C32.267 19.1538 31.969 17.6974 31.3732 16.8769C30.7773 16.0461 29.7633 15.6102 28.3311 15.5692H26.6533Z" fill="white"/>
</svg>
